<svg xmlns="http://www.w3.org/2000/svg" width="30" height="30"><path d="M5.769 0A5.786 5.786 0 000 5.769v18.462A5.786 5.786 0 005.769 30h18.462A5.786 5.786 0 0030 24.231V5.769A5.786 5.786 0 0024.231 0zm0 2.308h18.462a3.442 3.442 0 013.462 3.462v18.461a3.442 3.442 0 01-3.462 3.462h-3.683v-9.308h3.223l.482-3.714h-3.7V12.3c0-1.075.3-1.807 1.852-1.807h1.983V7.175a26.711 26.711 0 00-2.889-.144c-2.857 0-4.809 1.728-4.809 4.9v2.736l-2.84-.009v3.714l2.84.009v9.307H5.769a3.442 3.442 0 01-3.462-3.462V5.769a3.442 3.442 0 013.462-3.461z" fill="#9b9b9b"/></svg>