<svg xmlns="http://www.w3.org/2000/svg" width="30" height="30"><path d="M8.708 0A8.725 8.725 0 000 8.708V21.3A8.723 8.723 0 008.708 30H21.3a8.723 8.723 0 008.7-8.708V8.708A8.725 8.725 0 0021.292 0zm0 2.308h12.584a6.379 6.379 0 016.4 6.4v12.584a6.377 6.377 0 01-6.391 6.4H8.708a6.377 6.377 0 01-6.4-6.391V8.708a6.379 6.379 0 016.4-6.4zm15.523 2.307a1.154 1.154 0 101.154 1.154 1.15 1.15 0 00-1.154-1.154zM15 6.923A8.077 8.077 0 1023.077 15 8.1 8.1 0 0015 6.923zm0 2.308A5.769 5.769 0 119.231 15 5.752 5.752 0 0115 9.231z" fill="#9b9b9b"/></svg>