<svg xmlns="http://www.w3.org/2000/svg" width="49.842" height="40"><g fill="red" fill-rule="evenodd"><path d="M0 22.355a3.761 3.761 0 011.16-2.112 7.3 7.3 0 012.168-1.271c10.872-4.421 21.763-8.8 32.606-13.289 4.145-1.717 8.178-3.7 12.262-5.567a1.188 1.188 0 00.17-.116h.141a1.01 1.01 0 01-.014.333c-.556 1.363-1.063 2.75-1.7 4.074a5.515 5.515 0 01-3.18 2.825q-6.327 2.306-12.67 4.567Q17.6 16.526 4.255 21.226a5.1 5.1 0 00-1.131.547 1.6 1.6 0 00-.486 2.353 4.775 4.775 0 00.76.867q4.192 3.928 8.4 7.841c.075.07.163.127.32.246-.162.021-.214.033-.265.033-1.195 0-2.389 0-3.584.005a.335.335 0 01-.38-.26 4.175 4.175 0 00-1.055-1.6c-1.543-1.538-3.063-3.1-4.624-4.618A6.453 6.453 0 010 23.199zM15.114 40c-.669-.1-1.347-.154-2-.3a3.886 3.886 0 01-1.157-.48 2.622 2.622 0 01.008-4.495 4.825 4.825 0 012.09-.655 8.761 8.761 0 013.849.315 2.679 2.679 0 011.84 3.436 2.856 2.856 0 01-2.269 1.878c-.654.158-1.335.2-2 .3zm.181-4.964c-.178.012-.39.016-.6.044a1.412 1.412 0 00-1.353 1.215 2.127 2.127 0 00.587 2.3 1.027 1.027 0 00.475.209 7.112 7.112 0 001.32.077 1.491 1.491 0 001.55-1.492 3.6 3.6 0 00-.031-.976 1.472 1.472 0 00-1.464-1.346c-.148-.011-.3-.018-.481-.031zm34.547 4.753h-4.84v-.741c.172-.022.354-.042.536-.07.2-.03.479-.066.418-.309-.057-.225-.281-.57-.446-.578a32.528 32.528 0 00-3.2 0c-.167.008-.389.354-.453.58-.071.251.207.285.405.314.16.023.321.038.5.059v.716h-3.527v-.684c.03-.026.039-.041.047-.04a1.458 1.458 0 001.454-.972c.439-.812.958-1.581 1.439-2.37.283-.464.185-.642-.367-.69-.232-.02-.462-.052-.71-.081v-.74h.923c1.031 0 2.062.015 3.092-.007a.905.905 0 01.868.463c.771 1.2 1.6 2.37 2.328 3.6a1.47 1.47 0 001.532.783zm-7.046-2.734h2.193l-1.131-1.728z"/><path d="M13.569 22.463l-4.91 1.286c-1.312.343-2.626.68-3.936 1.03a.473.473 0 01-.535-.127c-.183-.2-.4-.363-.583-.559a1.045 1.045 0 01.241-1.718 4.747 4.747 0 01.871-.365l35.25-11.6c1.576-.52 3.12-1.135 4.679-1.7.113-.041.228-.079.354-.122.02.083.043.122.033.146a18.1 18.1 0 01-2.41 4.145 5.289 5.289 0 01-2.85 1.821q-9.655 2.591-19.308 5.189-3.3.888-6.606 1.772c-.475.125-.559.341-.29.802zm27.427-6.299a1.957 1.957 0 01-.135.271c-.7 1-1.373 2.009-2.111 2.975a4.772 4.772 0 01-3.1 1.677q-8.616 1.641-17.225 3.321c-.046.009-.09.024-.136.034-.473.106-.558.343-.235.788-.6.117-1.17.233-1.746.343l-8.822 1.686a.678.678 0 01-.686-.188c-.583-.574-1.195-1.117-1.852-1.726l35.987-9.272zM23.192 28.437l-2.991.379-7 .887c-.964.122-1.927.249-2.891.362a.494.494 0 01-.35-.088c-.757-.682-1.5-1.378-2.249-2.071a.465.465 0 01-.058-.112l28.846-5.41a2.386 2.386 0 01-.185.307c-.751.836-1.478 1.7-2.266 2.5a5.551 5.551 0 01-3.385 1.454c-2.353.321-4.7.678-7.051 1.027-.556.08-.634.231-.42.765zm7.606 4.678H13.705a.862.862 0 01-.652-.252c-.769-.733-1.554-1.451-2.394-2.23.5-.063.916-.12 1.338-.169q3.764-.437 7.529-.871c1.5-.174 3-.356 4.5-.524a.718.718 0 01.428.071q3.093 1.9 6.173 3.829c.033.031.063.058.171.146zM.284 34.923v-.719h4.418v.717c-.21.028-.416.063-.623.08a.444.444 0 00-.463.469c-.01.3 0 .6 0 .93h3.483c0-.325.012-.638 0-.95a.438.438 0 00-.449-.447c-.209-.019-.417-.05-.645-.078v-.721h4.434v.718c-.2.027-.4.064-.594.075a.467.467 0 00-.509.532q.007 1.458 0 2.917a.454.454 0 00.485.516c.2.012.394.05.615.079v.714H6.003v-.714c.209-.028.425-.065.643-.083a.445.445 0 00.452-.48c.01-.292 0-.585 0-.909H3.64a7.809 7.809 0 00.017 1.062c.017.121.215.261.359.311a3.528 3.528 0 00.686.1v.716H.288v-.711c.224-.03.431-.067.638-.083a.424.424 0 00.448-.443q.016-1.528 0-3.056a.439.439 0 00-.472-.46c-.195-.019-.391-.053-.618-.082zm23.395 4.116v.722h-3.521v-.722c.226-.029.445-.061.664-.085a.422.422 0 00.425-.462v-3.023a.434.434 0 00-.457-.47c-.209-.019-.417-.051-.643-.079v-.741h.429c1.1 0 2.2.008 3.3 0a.87.87 0 01.773.383c.854 1.145 1.723 2.28 2.587 3.418.069.092.142.181.26.331a2.989 2.989 0 00.039-.311v-2.285c0-.574-.082-.658-.652-.726-.139-.017-.277-.042-.443-.068v-.712h3.518v.713c-.187.026-.37.055-.554.075-.443.048-.545.146-.548.6-.006 1.242 0 2.484 0 3.726v.447c-.992 0-1.949.018-2.9-.017-.167-.006-.363-.2-.484-.357-.853-1.1-1.69-2.217-2.533-3.327l-.324-.422a3.087 3.087 0 00-.039.315v2.214c0 .666.041.714.683.805zm6.701.721v-.717c.213-.029.418-.071.624-.083a.451.451 0 00.481-.489q.013-1.509 0-3.019a.415.415 0 00-.429-.455c-.2-.015-.39-.048-.6-.075V34.2c.121-.007.223-.018.326-.018 1.744 0 3.488-.032 5.231.015a6.7 6.7 0 011.952.349 2.613 2.613 0 01.01 4.868 5.633 5.633 0 01-1.741.346c-1.895.044-3.791.018-5.687.018-.044.001-.089-.009-.167-.018zm3.306-1.08c.8 0 1.564.028 2.321-.01a.963.963 0 00.957-.877 7.158 7.158 0 000-1.634.9.9 0 00-.792-.834c-.819-.084-1.647-.087-2.485-.125z"/></g></svg>