<svg xmlns="http://www.w3.org/2000/svg" width="38" height="30"><path d="M19 0A92.451 92.451 0 005.588 1.023a5.812 5.812 0 00-4.825 4.74A53.258 53.258 0 000 15a53.258 53.258 0 00.763 9.237 5.824 5.824 0 004.824 4.741A92.978 92.978 0 0019 30a92.808 92.808 0 0013.4-1.023h.011a5.812 5.812 0 004.824-4.741A53.46 53.46 0 0038 15a52.036 52.036 0 00-.774-9.237 5.788 5.788 0 00-4.814-4.741A92.45 92.45 0 0019 0zm0 2.727a89.537 89.537 0 0113.009.991 3.08 3.08 0 012.545 2.525A50.013 50.013 0 0135.286 15a51.031 51.031 0 01-.721 8.746 3.079 3.079 0 01-2.555 2.536 91.766 91.766 0 01-13.01.991 91.63 91.63 0 01-13.009-.991 3.091 3.091 0 01-2.555-2.536A51.136 51.136 0 012.714 15a51.175 51.175 0 01.721-8.757A3.056 3.056 0 015.98 3.729h.011A89.267 89.267 0 0119 2.727zm-5.429 5.455v13.636L27.143 15z" fill="#9b9b9b"/></svg>